<?xml version="1.0" standalone="no"?>
<!DOCTYPE svg PUBLIC "-//W3C//DTD SVG 1.1//EN" "http://www.w3.org/Graphics/SVG/1.1/DTD/svg11.dtd" >
<svg xmlns="http://www.w3.org/2000/svg">
<metadata>
This is a custom SVG webfont generated by Font Squirrel.
Copyright   : Made with yourfontscom Copyright  2009 Joo Faraco All rights reserved
</metadata>
<defs>
<font id="FaracoHandRegular" horiz-adv-x="900" >
<font-face units-per-em="2048" ascent="1638" descent="-410" />
<missing-glyph horiz-adv-x="541" />
<glyph unicode=" "  horiz-adv-x="541" />
<glyph unicode="&#x09;" horiz-adv-x="541" />
<glyph unicode="&#xa0;" horiz-adv-x="541" />
<glyph unicode="!" horiz-adv-x="473" d="M60 -74q37 167 93 167h37q111 -58 111 -93q0 -116 -204 -130zM153 371q37 634 111 1112q0 37 56 37q74 -18 74 -74q-93 -469 -130 -964q18 -32 18 -74q-23 -93 -55 -93h-19q-14 0 -55 56z" />
<glyph unicode="&#x22;" horiz-adv-x="455" d="M60 1298q19 130 56 130h18q37 0 56 -223q-19 -39 -37 -167h-37q-43 0 -56 260zM264 1038v316q12 111 56 111h37l18 -130q-37 -297 -74 -297h-37z" />
<glyph unicode="#" horiz-adv-x="1179" d="M60 353q0 41 315 111q37 149 37 241q-192 -13 -278 -93q-36 19 -55 19v55q0 47 407 167q0 32 37 111q-111 0 -111 130q120 74 186 74q60 -18 74 -74q0 -9 -56 -204v-37q223 11 223 223l37 18h55v-18q0 -40 -55 -186q222 -37 222 -74v-37h-148q-148 0 -148 -185v-75 q66 0 166 19q93 -24 93 -56v-18q-334 0 -334 -223q-37 -76 -37 -111h-37q-37 0 -37 37q37 147 37 223h-18q-223 -40 -223 -93q-41 -185 -74 -185h-56q0 19 -18 55q37 95 37 148h-204q-37 0 -37 38zM486 464q204 0 204 92q19 45 37 186h-74q-167 0 -167 -260v-18z" />
<glyph unicode="$" horiz-adv-x="1104" d="M60 130q28 74 56 74h37q139 -148 278 -148h130v18q-32 390 -112 390q-296 0 -296 204q0 88 278 204q18 32 18 74q0 19 -18 55q47 223 92 223q112 -44 112 -74v-56q-74 0 -93 -148q37 -6 37 -37q36 18 56 18q222 -18 222 -92v-75q0 -37 -37 -37q-74 37 -74 56 q-148 -19 -148 -56v-74q0 -148 111 -148q315 -79 315 -223q0 -223 -334 -333q0 -30 -74 -278h-93v18q0 22 38 204v56h-167q-334 78 -334 185zM282 631q0 -52 186 -75h18q-18 149 -55 149q-149 -23 -149 -74zM635 390q18 -210 55 -316q241 67 241 223q-129 111 -296 111v-18z " />
<glyph unicode="%" horiz-adv-x="1030" d="M60 19q0 107 816 1205q45 -37 74 -37v-37q-674 -952 -797 -1168h-56q-37 0 -37 37zM97 1020v18q0 52 74 149q19 36 19 55h92q56 -18 56 -111q0 -101 -74 -148q-121 37 -167 37zM653 223q0 87 204 130q93 -26 93 -130q-59 -111 -204 -111q-67 34 -93 111z" />
<glyph unicode="&#x26;" horiz-adv-x="1364" d="M60 112v37q0 93 334 686q37 74 37 129q-37 139 -37 149q63 333 333 333q75 -18 75 -92q-223 -354 -223 -427q0 -88 185 -426h19q382 303 408 463h18q75 -30 75 -129q-390 -415 -390 -482h19l241 -186q0 -37 -56 -37q-100 0 -315 167q-355 -352 -482 -352h-56 q-185 25 -185 167zM171 149l19 -93h55q161 0 445 334q-185 301 -185 370h-37l-297 -556v-55zM505 1094h37q0 26 130 223h-56q-111 -76 -111 -186v-37z" />
<glyph unicode="'" horiz-adv-x="270" d="M60 1187v148l19 111q-19 31 -19 93h74l56 -185q-31 -297 -74 -297h-37z" />
<glyph unicode="(" horiz-adv-x="789" d="M60 631q0 567 463 1130l112 19h37q37 -6 37 -37l-167 -111q-316 -422 -334 -723q-33 0 -37 -186v-259q0 -47 37 -167h-18q55 -223 241 -593v-37h-37q-334 355 -334 964z" />
<glyph unicode=")" horiz-adv-x="714" d="M60 1780v37q0 27 56 56q97 -19 185 -19q0 -55 -74 -55q408 -439 408 -835v-185q0 -434 -353 -1020l-148 -111h-55v19l259 389q204 470 204 760q0 595 -482 964z" />
<glyph unicode="*" horiz-adv-x="789" d="M60 853q0 41 167 56v37l-111 148q5 37 37 37h18l167 -130q25 130 56 130h37q9 -74 55 -74h37l75 56h18q37 -6 37 -37v-38q-92 -75 -92 -92q148 0 148 -37q0 -26 -130 -112q26 0 111 -111v-18q0 -37 -37 -37q-176 111 -204 111v-111q0 -37 -37 -37q-26 0 -74 92 q-18 0 -130 -92h-18q-37 0 -37 37l111 148q-204 28 -204 74z" />
<glyph unicode="+" horiz-adv-x="844" d="M60 556v19h93q93 0 278 19q0 81 55 278h56q0 -29 37 -75q-37 -139 -37 -166q36 -19 56 -19l166 19v-112h-74q-167 -33 -167 -74v-167q0 -37 -37 -37h-55q0 37 -19 37l19 130v74q-185 -18 -278 -18z" />
<glyph unicode="," horiz-adv-x="306" d="M60 -519q63 318 74 352l-18 37v56q5 37 37 37h18q27 0 56 -55v-93q-37 -389 -111 -389h-19q-37 0 -37 37v18z" />
<glyph unicode="-" horiz-adv-x="696" d="M60 575v37q148 37 315 37h148l93 -18v-56q0 -37 -37 -37q-14 0 -111 18l-37 -18q-36 18 -56 18q-237 -37 -278 -37z" />
<glyph unicode="." horiz-adv-x="344" d="M60 -74q0 51 185 74l19 -37q0 -101 -93 -148q-111 18 -111 55v56z" />
<glyph unicode="/" horiz-adv-x="654" d="M-101 -667q29 173 575 1520q167 309 167 352v56h74q56 0 56 -74q0 -45 -186 -352q-407 -1018 -556 -1465q0 -74 -37 -74h-56q-37 0 -37 37z" />
<glyph unicode="0" horiz-adv-x="808" d="M60 390v18q0 136 167 519q0 54 334 167q74 130 92 130h37q37 -6 37 -37l-55 -93v-56q55 -182 55 -259q0 -398 -352 -612q-204 0 -204 -130h-55v186q-56 71 -56 167zM153 408l37 -18l204 445q-111 0 -241 -427zM264 241h18q164 0 316 408v204q0 37 -37 37 q-297 -517 -297 -649z" />
<glyph unicode="1" horiz-adv-x="548" d="M60 408q0 46 297 649q0 93 37 93h37q37 -6 37 -37q-37 -357 -37 -501v-445q0 -37 -37 -37h-19q-37 0 -37 37v556h-37q-138 -345 -185 -352h-19q-37 0 -37 37z" />
<glyph unicode="2" horiz-adv-x="844" d="M60 130v93q274 463 334 704h-37l-75 -92q-35 18 -55 18v111q0 48 167 74q84 -35 92 -74v-92q-315 -632 -315 -668q487 111 575 111l18 -37q0 -71 -482 -166h-37z" />
<glyph unicode="3" horiz-adv-x="863" d="M60 204v37q6 37 37 37h56q96 -92 129 -92q390 163 390 296v37q0 29 -74 75h-93l-111 -19q-33 19 -74 19v92q81 6 333 223q0 37 -37 37q-222 -37 -278 -93h-74q-37 0 -37 37v37q217 93 352 93h130q27 0 55 -56v-18q0 -80 -166 -223q185 -118 185 -241q0 -201 -482 -370 q-83 0 -111 -19q-84 31 -130 111z" />
<glyph unicode="4" horiz-adv-x="789" d="M60 556q371 308 371 445l130 37q35 -18 55 -18v-93q-93 -74 -93 -241q45 -18 186 -37v-55q0 -34 -167 -56q-79 -501 -111 -501q-56 11 -56 130q0 56 56 315q0 37 -37 37q0 -55 -260 -55q-74 18 -74 92zM264 594l148 37v111q-23 0 -148 -148z" />
<glyph unicode="5" horiz-adv-x="845" d="M60 816v74q0 54 389 130q154 37 297 37l18 -37v-56q-382 0 -556 -296q427 -56 427 -204v-19q0 -145 -408 -259l-19 37v55q0 31 278 112l37 55v19q0 63 -389 111q-55 72 -55 111q37 61 37 111q-36 19 -56 19z" />
<glyph unicode="6" horiz-adv-x="733" d="M60 408v56q0 244 297 519l74 55h55q37 -5 37 -37q0 -92 -92 -92q-231 -231 -260 -408v-130h37q136 260 297 260q148 0 148 -186q0 -200 -389 -296q-204 80 -204 259zM245 297q6 -37 37 -37q126 0 260 167q0 37 -56 37q-241 -94 -241 -167z" />
<glyph unicode="7" horiz-adv-x="697" d="M60 575q0 22 315 148l19 112v37q0 37 -37 37l-223 -93h-55v56q143 148 296 148h37q111 -74 111 -167q-18 -32 -18 -74v-19l111 -74v-18q-148 -85 -148 -149v-204l18 -129l-37 -19h-37q-43 0 -55 297l18 111h-37q-56 0 -167 -74q-111 37 -111 74z" />
<glyph unicode="8" d="M60 315q41 297 234 338l7 15q-103 28 -130 111v74q156 315 371 315h37q167 0 167 -204v-18q0 -89 -130 -223q213 -66 204 -259q-174 -371 -482 -371h-56q-222 44 -222 222zM153 353q0 -135 129 -167q297 0 445 259q0 149 -222 149q-278 -20 -352 -241zM320 797 q0 -27 74 -55q241 71 241 222v37l-74 19q-186 0 -241 -130v-93z" />
<glyph unicode="9" horiz-adv-x="996" d="M84 723q258 353 482 353q192 0 278 -353v-111q0 -42 3 -72q-3 -35 -3 -76q0 -19 -2 -27q2 -28 2 -47l-18 -186q18 -97 18 -185l-37 -19h-56q-66 0 -74 241q19 365 19 482q-206 -197 -445 -204q-167 44 -167 204zM232 688q-6 -17 19 -20q334 88 334 241v18h-37 q-158 0 -316 -239z" />
<glyph unicode=":" horiz-adv-x="362" d="M60 260q25 130 74 130q111 -12 111 -56q0 -167 -111 -167q-74 56 -74 93zM79 760q18 75 129 75q33 -19 74 -19v-37q0 -100 -74 -130q-129 56 -129 111z" />
<glyph unicode=";" horiz-adv-x="399" d="M60 -389q124 307 185 334q56 0 56 -75q-99 -266 -185 -333h-37zM153 260q36 84 74 93q93 -19 93 -93l-75 -74h-74z" />
<glyph unicode="&#x3c;" horiz-adv-x="807" d="M60 479q0 78 278 223q0 20 297 222h55q37 -6 37 -37v-74q-453 -250 -537 -352v-37q475 -262 519 -353v-18q0 -37 -56 -37q-593 309 -593 463z" />
<glyph unicode="=" horiz-adv-x="1067" d="M60 482q0 37 56 37q18 0 18 -18q260 37 760 55q93 -23 93 -55v-19q0 -37 -56 -37q-313 0 -778 -37q-85 36 -93 74zM97 779v37l19 37l92 -18l297 37l37 -19q80 37 297 37l37 -55q0 -61 -464 -93h-18l-37 18q-30 -22 -186 -37q-74 28 -74 56z" />
<glyph unicode="&#x3e;" horiz-adv-x="770" d="M60 890v19q0 37 56 37l426 -315q148 -77 148 -186q-233 -185 -296 -185q0 -20 -260 -260h-37q0 20 -18 56q149 251 426 389q37 0 37 37q-309 189 -482 408z" />
<glyph unicode="?" horiz-adv-x="1030" d="M60 1224q174 278 593 278q297 0 297 -185q0 -190 -408 -649q0 -56 -37 -56h-93q0 20 -18 56q463 559 463 649v37q-68 37 -148 37q-232 0 -445 -204q0 -93 -37 -93q-167 0 -167 130zM301 74v56q0 19 93 93h37q29 0 74 -74q-19 -112 -56 -112h-18l-37 19v-37h-37 q-27 0 -56 55z" />
<glyph unicode="@" horiz-adv-x="1512" d="M60 297v56q0 648 760 889h93q331 0 463 -278q56 -180 56 -222q0 -264 -315 -501h-56q-83 0 -167 112l-148 -112h-74q-130 0 -130 130v56q121 352 389 352q56 0 149 -148v-56q0 -68 -75 -167q0 -55 75 -55q241 174 241 352v130q-118 278 -427 278q-478 0 -686 -501 q-37 -72 -37 -204v-18q0 -439 408 -594q73 -37 204 -37h111q217 0 538 130v-19q-240 -222 -612 -222h-56q-477 0 -667 501q-37 67 -37 148zM635 371q37 -6 37 -37q204 83 204 222v38h-19q-107 0 -222 -223z" />
<glyph unicode="A" horiz-adv-x="955" d="M60 56q0 32 74 204q-18 36 -18 55q69 0 148 427q144 580 241 667q28 74 56 74h18q19 0 56 -74l-19 -92v-38q70 -797 167 -797q93 0 93 -37v-37l-74 -18q0 18 -19 18q0 -18 -19 -18q56 -312 56 -501q-32 -19 -74 -19l-37 75l18 37q-33 389 -111 389q-389 -48 -389 -148 q-82 -334 -130 -334q-37 0 -37 37v130zM301 427h19q246 37 315 74q-56 211 -130 686h-19q-185 -720 -185 -760z" />
<glyph unicode="B" horiz-adv-x="1159" d="M60 223v37q0 26 56 55h18l74 -55h149q37 0 37 37v93l-19 111l19 37q-33 324 -112 371v18q0 29 75 74q-37 132 -37 204h-38v-111h-18q-92 49 -93 74v19q201 222 464 222h37q111 -11 111 -55v-112l-167 -204q464 -66 464 -370v-19q0 -139 -241 -334q-117 -102 -371 -185 v-56h-37q-37 62 -315 75zM412 1261l19 -93v-92h18q228 157 241 203v38h-55q-56 0 -223 -56zM449 872q37 -297 37 -594v-18q132 0 408 259q93 72 93 149v55q-148 223 -371 223q-113 -37 -167 -74z" />
<glyph unicode="C" horiz-adv-x="1122" d="M60 575v37q0 381 593 686h130q111 0 111 -111v-37q0 -27 -55 -56h-19q-93 111 -130 111q-326 -146 -463 -408q-56 -122 -56 -166v-93q60 -315 482 -315q102 18 149 18l37 -18l111 18h93v-55q-379 -74 -427 -74q-556 62 -556 463z" />
<glyph unicode="D" horiz-adv-x="1178" d="M60 1150v55q0 34 167 56q0 18 18 18h75q0 -68 444 -259q334 -227 334 -389v-37q0 -142 -278 -408q-254 -136 -519 -186v-37q0 -137 -56 -148h-37v148q0 23 -129 74v19q0 44 148 74l18 37v723l-18 223q18 0 18 18l-37 19h-148zM338 204q34 -6 34 -59v-9q355 142 504 309 l148 130q0 274 -686 519l19 -630l-19 -130q19 -36 19 -56q-19 -32 -19 -74z" />
<glyph unicode="E" horiz-adv-x="1104" d="M60 575v19q6 37 37 37h111l37 389l-37 18l-74 -55q-26 0 -55 55v56q166 0 166 204h56l19 -111q364 74 667 111l18 -37q0 -56 -630 -185q-55 -158 -55 -223v-185q452 129 574 129h74v-74q-667 -148 -667 -222q-19 -72 -19 -148q0 -371 204 -371h37q408 85 408 259h56 q37 -6 37 -37q0 -227 -519 -334h-74q-241 102 -241 297v315l18 37q-148 0 -148 56z" />
<glyph unicode="F" horiz-adv-x="996" d="M60 1057v37q0 56 222 111l-18 93v19h93q0 -93 37 -93q391 111 723 111h185v-74q-871 -86 -871 -185q0 -19 18 -19l-18 -130v-259q6 -37 37 -37q60 37 93 37q18 0 18 -19l93 19h92v-74q-333 -71 -333 -112v-463q0 -37 -37 -37h-19q-55 0 -55 167q0 75 18 333q-18 0 -18 19 l-93 -19h-37v74q54 0 148 93l-18 37v19q0 88 18 185q-18 69 -18 167v19h-38q-68 0 -148 -93q-29 0 -74 74z" />
<glyph unicode="G" horiz-adv-x="1011" d="M60 519q0 334 501 668q109 111 296 111q56 -72 56 -111l-260 -74q-482 -296 -482 -594v-37q0 -186 260 -222q333 0 333 148q0 165 19 278q-246 -13 -389 -92h-56v74q0 79 501 148l55 -74v-371h37v-74q-55 0 -55 -37v-278q0 -37 -37 -37h-19q-56 0 -56 241v18 q-240 -55 -315 -55h-55q-284 0 -334 370z" />
<glyph unicode="H" horiz-adv-x="1049" d="M60 1354h56q80 0 111 -649h55q315 37 353 37h92q37 0 37 37q0 69 -55 575l37 18h18q24 0 93 -111v-74q0 -19 -18 -19l18 -37v-74q0 -93 19 -278h92v-37q-92 -76 -92 -93v-259q0 -260 -74 -260h-38v204q0 42 19 74q-19 33 -19 74v167h-18q-501 -51 -501 -93v-648h-74 q-37 0 -37 37v315q0 310 -74 1094z" />
<glyph unicode="I" horiz-adv-x="307" d="M60 -111q19 1046 56 1465h92v-93q0 -62 19 -93q-51 -320 -74 -1149q18 -72 18 -149l-92 -18z" />
<glyph unicode="J" horiz-adv-x="882" d="M60 223q19 36 19 55h74q92 0 296 -241l130 -111h19q80 0 111 278q-19 33 -19 74h19l-19 37v38q0 18 19 18l-111 760l18 37q-37 76 -37 111l56 38h18q37 0 37 -56v-56q33 0 112 -890v-185q-60 -334 -186 -334q-370 94 -537 371q0 20 -19 56z" />
<glyph unicode="K" d="M60 -111l37 501q0 18 -18 18l18 130v37q0 240 19 371q-19 131 -19 371l37 129h19q111 0 111 -74q-56 -540 -56 -630h19l389 500q67 93 111 93q36 -18 56 -18v-19q-114 -95 -371 -519q-26 0 -111 -111q519 -525 519 -556v-56h-56q-510 500 -537 500q-37 0 -37 -55 q0 -157 -19 -593l-55 -38h-19z" />
<glyph unicode="L" horiz-adv-x="882" d="M60 130q0 127 56 927q0 16 -19 148q19 33 19 74q-37 0 -37 38q5 37 37 37h18q51 0 74 -186q0 -241 -37 -982q-18 0 -18 -19l37 -18q131 37 148 37h185q93 0 279 -19v-37q-19 -56 -112 -56h-259q-277 -55 -297 -55q-74 18 -74 111z" />
<glyph unicode="M" horiz-adv-x="1141" d="M60 1279v38h130q33 0 74 -167q82 -73 278 -353h37q52 157 334 520h37q27 0 55 -56v-185q0 -42 -18 -75q18 -36 18 -55q0 -42 -18 -74q18 -315 74 -779v-56h-74q-74 0 -111 983q-244 -352 -353 -352q-69 24 -222 296l-37 19h-19v-927q0 -27 -55 -56h-19q-46 0 -55 74 q0 35 37 223l-19 167q0 18 19 18l-19 130v501q0 67 -74 166z" />
<glyph unicode="N" horiz-adv-x="1086" d="M60 835q19 352 74 352h56q0 -61 130 -186q294 -391 500 -611h19q18 278 18 407v649q6 37 37 37q43 0 93 -741q18 -97 18 -186q0 -83 -18 -241l18 -111q-27 -74 -55 -74h-56q0 37 -315 352q-259 377 -352 445h-37l18 -37q19 -387 19 -630q0 -223 -56 -223h-55 q-37 149 -37 316v370z" />
<glyph unicode="O" horiz-adv-x="1233" d="M60 353q0 368 482 852l130 37q74 -27 74 -55v-19l-19 -37q408 -66 408 -408q19 0 19 -129v-19q0 -316 -538 -667q-25 0 -204 -38q-303 0 -352 483zM171 278q53 -296 241 -296h56q261 0 575 500v204q0 226 -353 315l-92 19q-198 -57 -371 -389q-56 -184 -56 -353z" />
<glyph unicode="P" horiz-adv-x="938" d="M60 464v55l204 130v519q0 37 -37 37h-19l-74 -55h-18q-27 0 -56 55v19q202 111 482 111q519 -93 519 -241q0 -259 -704 -556l37 -408q-19 -32 -19 -74q19 -36 19 -56q-19 -36 -19 -55h-55q-38 0 -38 37q-18 369 -18 500h-19zM357 723q18 -55 37 -55q217 36 519 333 q37 0 37 93q-200 130 -464 130q-41 0 -74 -19q-36 19 -55 19v-37q5 -37 37 -37q-14 -112 -37 -112l18 -92v-56q0 -66 -18 -167z" />
<glyph unicode="Q" horiz-adv-x="1178" d="M60 371q0 455 408 871l37 19q56 0 56 -74q11 0 241 18q296 -58 296 -426q0 -192 -296 -501q0 -62 55 -129v-37q0 -38 -37 -38q-40 4 -111 112q-252 -130 -389 -130q-204 0 -260 315zM171 353q26 -186 167 -186h37q69 0 241 74v37q-171 204 -222 204v56h37q96 0 278 -185 q278 260 278 444q-70 260 -241 260h-167q-291 0 -408 -593v-111z" />
<glyph unicode="R" horiz-adv-x="1289" d="M60 1150v37h56v148h74q5 -93 55 -93q557 0 557 -259q0 -234 -353 -519q-45 -37 -74 -37v-19q834 -115 834 -185q0 -37 -37 -37q-539 37 -908 129v-18l-19 -111l19 -37q-19 -36 -19 -56q19 -36 19 -56l-37 -18h-56l-18 74q-19 708 -19 964zM245 482q199 37 390 297 q74 148 74 204q0 117 -352 167q-112 -25 -112 -56v-612z" />
<glyph unicode="S" horiz-adv-x="1345" d="M60 149v37q0 26 56 55h55q0 -93 371 -111h222q408 67 408 223q0 278 -686 407q-185 86 -185 204v19q0 107 593 296q24 19 130 19q134 0 148 -111q-18 0 -18 -19l-74 19q-386 0 -668 -241q28 -63 538 -204q315 -146 315 -334v-148q-89 -241 -593 -241h-37 q-575 37 -575 130z" />
<glyph unicode="T" horiz-adv-x="1024" d="M-168 1131v19q162 74 612 129q0 75 74 75l93 -56h445q0 -20 18 -56q-18 -36 -18 -55h-19q-56 0 -56 18q-426 -39 -426 -92q0 -348 56 -742l-19 -111v-111q0 -37 -37 -37h-37q-37 0 -37 37v148q0 204 -56 871q-449 -74 -574 -74z" />
<glyph unicode="U" horiz-adv-x="1160" d="M60 760q0 298 56 575h37q37 -6 37 -37q0 -418 -37 -519q52 -723 408 -723h55q334 264 334 853q-56 413 -56 445h19q92 0 167 -631q0 -432 -390 -741l-92 -19h-19q-350 0 -482 427q-37 249 -37 370z" />
<glyph unicode="V" horiz-adv-x="683" d="M-111 1391q6 37 37 37q93 -27 315 -816q29 0 74 -167h19q37 0 56 149q162 247 278 871h55q0 -34 37 -148q-204 -695 -352 -1113l-37 -18h-19q-215 340 -463 1205z" />
<glyph unicode="W" horiz-adv-x="1345" d="M60 1224q0 27 56 55h55q27 0 56 -55q0 -19 -19 -19q181 -945 241 -945q0 195 149 371h55q193 -371 241 -408q0 92 297 1297h37q37 -5 37 -37q0 -70 -148 -704q-74 -226 -130 -723l-37 -19h-19q-231 202 -278 408h-37q0 -51 -111 -519v-37h-111q0 160 -334 1335z" />
<glyph unicode="X" horiz-adv-x="1085" d="M60 1335h56q55 -29 370 -575h19q389 598 389 649h37l37 -18q0 -85 -370 -742v-18q0 -26 166 -204l241 -390v-37q0 -37 -37 -37h-37q-31 3 -241 371q-129 130 -129 167h-38q-203 -327 -278 -556h-92q0 19 -19 55q230 490 315 612q-389 565 -389 723z" />
<glyph unicode="Y" horiz-adv-x="1085" d="M60 1242v93h19q109 0 482 -371q55 0 55 -74h19q31 0 241 482l74 111q32 0 55 -92l-500 -1150q-105 -307 -167 -352q-74 28 -74 56q296 693 315 815v19q-405 426 -482 426q-37 0 -37 37z" />
<glyph unicode="Z" horiz-adv-x="1401" d="M60 37q93 71 93 204q370 516 852 1094v19h-241q-251 0 -407 -37q-172 37 -186 92v19q56 0 56 -19q286 56 778 56h149q26 0 55 -56v-37q-964 -1081 -964 -1279h19q728 56 964 56h56q37 -6 37 -37v-56q-76 0 -1076 -74q-185 14 -185 55z" />
<glyph unicode="[" horiz-adv-x="788" d="M60 38v18q56 61 56 93q74 1039 111 1218q166 0 278 37q60 -37 204 -56v-37q0 -37 -37 -37q-42 0 -74 18q-297 0 -297 -111q-22 -409 -93 -903l56 -166l93 19h18l186 -19v-56q-140 -37 -260 -37h-148z" />
<glyph unicode="\" horiz-adv-x="3255" d="M60 2336v37h3115v-55h-1150q-18 0 -18 18l-37 -18h-167q-102 0 -260 18l-37 -18l-111 18h-74q-56 0 -56 -18l-93 18h-1112zM950 1224l93 18q143 -262 352 -945l463 -834q-18 -56 -37 -56q-81 0 -389 575q-216 408 -427 1131q-55 18 -55 111z" />
<glyph unicode="]" horiz-adv-x="622" d="M60 55v19q6 37 37 37h204l93 -19v75q-56 261 -112 1103h-55q-42 0 -74 -19q-33 19 -74 19v74q165 22 203 37q130 -29 130 -111h-18l18 -37q0 -19 -18 -19l18 -146v-204q0 -235 111 -753q19 0 19 -19v-18q0 -37 -148 -56q0 -18 -19 -18h-204q-96 0 -111 55z" />
<glyph unicode="^" horiz-adv-x="434" d="M14.5 1121.5q-0.5 5.5 3.5 13.5t12 17t19 15t31 21.5t43 35t45 42t37 42.5q8 11 16 24.5t15.5 24.5t13.5 18t11 5q4 -2 11 -3.5t13.5 -4t12.5 -8t9 -14.5q6 -19 13 -31.5t18 -35.5q6 -14 17.5 -31t24.5 -33t25.5 -29t20.5 -18q22 -14 21.5 -35.5t-13.5 -35.5t-32 -15 t-35 26q-14 25 -23.5 45.5t-12.5 30.5q-2 5 -14 15t-26 20q-17 11 -36 25l-10 3l-5 -17q-56 -32 -103 -57q-20 -11 -39.5 -21t-35.5 -18.5t-27 -13.5t-14 -6q-6 -2 -6.5 3.5z" />
<glyph unicode="_" horiz-adv-x="1306" d="M70 109q0 56 259 56q186 0 557 -19q122 19 241 19q92 -24 92 -56v-37q0 -37 -37 -37h-74q-18 0 -18 19l-38 -19h-667q-19 0 -19 19q-18 0 -18 -19l-93 19l-130 -19z" />
<glyph unicode="a" d="M60 241q204 501 445 501q167 -56 167 -186l-37 -74l37 -18l-19 -130v-56q0 -136 56 -148h18l56 37h37q0 -148 -130 -148q-148 0 -148 315q-231 -241 -371 -241q-111 38 -111 148zM153 260q26 0 55 -56q207 0 334 334v37q0 37 -37 37h-19q-135 0 -333 -334v-18z" />
<glyph unicode="b" horiz-adv-x="733" d="M60 74q167 1036 167 1076q18 127 18 204h56q37 -6 37 -37v-56l-93 -667l130 18h56q185 0 222 -241q0 -334 -556 -482l-18 37v19l18 92q-37 0 -37 37zM153 56l37 -19q371 106 371 334q0 148 -149 148q-259 0 -259 -463z" />
<glyph unicode="c" horiz-adv-x="910" d="M61 266v93q111 298 338 374q71 13 120 13q24 0 42 -3q112 -4 112 -109v-19q0 -55 -74 -55q-61 37 -93 57q-28 13 -57 13q-135 0 -295 -290v-55q0 -143 222 -186q274 0 482 93h19v-37q0 -124 -519 -167q-297 60 -297 278z" />
<glyph unicode="d" horiz-adv-x="739" d="M68 202q0 294 334 556h55l93 -18q130 630 185 630q56 0 56 -74q-117 -315 -222 -1131q0 -74 -38 -74h-18q-37 0 -37 37q0 52 18 371l-18 93h-56q-259 -179 -259 -371q18 -36 18 -56q78 0 241 204q37 -6 37 -37q-58 -162 -204 -259h-55q-106 0 -130 129z" />
<glyph unicode="e" horiz-adv-x="1048" d="M60 315v38q0 221 593 463q125 -37 149 -111v-56q0 -80 -482 -241q-167 0 -167 -37v-56q0 -104 296 -129h19q221 0 463 167q37 -6 37 -38q0 -131 -445 -241h-129q-288 0 -334 241zM320 519q328 83 333 149v18h-18q-300 -116 -315 -167z" />
<glyph unicode="f" horiz-adv-x="711" d="M60 315v75q185 33 185 148q0 349 390 908q29 0 74 37h18q130 0 130 -166v-38h-37q-37 0 -37 56h-56q-370 -397 -370 -816h18q172 56 260 56l18 -37v-37q-296 -93 -296 -167q0 -28 92 -389q-18 -36 -18 -56h-56q-55 0 -130 445q-36 0 -129 -37q-36 18 -56 18z" />
<glyph unicode="g" horiz-adv-x="938" d="M-250 -612q19 75 74 75q50 -8 167 -167h56q368 176 537 704q0 42 74 334q-212 -185 -407 -185q-75 0 -130 92v74q0 197 463 501h19q259 -68 259 -111q-296 -1261 -482 -1261q-163 -187 -370 -259h-19q-159 0 -241 203zM232 278l37 -18h37q252 0 371 371v18l-37 19h-56 q-176 0 -352 -353v-37z" />
<glyph unicode="h" horiz-adv-x="789" d="M60 93q56 344 93 1186q33 0 55 167h37l93 -18v-56q-130 -139 -130 -890v-37q167 260 260 260q241 -89 241 -593v-75l-19 -92h-55q-37 0 -37 37v315q0 173 -149 297q-95 -47 -296 -557h-56q-37 0 -37 56z" />
<glyph unicode="i" horiz-adv-x="344" d="M60 0q56 348 74 612h37q41 0 56 -185h-19q0 -19 19 -19q-65 -482 -111 -482q-47 0 -56 74zM79 1001q16 0 148 19l37 -56q-19 -111 -56 -111h-18q-111 0 -111 148z" />
<glyph unicode="j" horiz-adv-x="683" d="M-333 -741q19 36 19 55h74q28 -113 333 -259h19q91 0 148 574v130q0 19 19 19l-19 37v37q0 56 19 56l-19 92v501q0 66 -18 167q28 74 55 74h56q32 0 74 -223q-74 0 -74 -129l18 -631q-47 -815 -259 -815q-324 0 -445 278v37zM168 1057v19q0 37 55 37q74 -28 74 -56v-74 h-92q0 29 -37 74z" />
<glyph unicode="k" horiz-adv-x="770" d="M60 93l93 871v186q0 147 -19 389l19 37q-19 33 -19 74q93 0 111 -74l-18 -167l18 -37q0 -18 -18 -18l18 -93v-315q0 -93 -18 -278q241 296 334 296v-37q-49 -91 -186 -222q-4 -32 -93 -149v-18q1 -19 390 -260q18 -32 18 -74h-74q-256 154 -426 223v-19 q-19 -127 -19 -204v-74q0 -27 -55 -56h-19z" />
<glyph unicode="l" horiz-adv-x="344" d="M60 0v371l93 1038h92q0 -55 19 -55q-93 -619 -130 -1150l19 -37q-19 -32 -19 -74q37 -60 37 -93l-55 -37h-19q-37 0 -37 37z" />
<glyph unicode="m" horiz-adv-x="1048" d="M60 167q19 311 19 482v74l18 37q-37 0 -37 37v38h37q41 0 93 -204q-19 -112 -37 -112q18 -36 18 -55q-18 -36 -18 -56h37q187 352 333 352q38 -60 38 -111v-18q0 -93 -19 -278h19q261 333 278 333h37q37 -74 55 -463q27 0 37 -204h-37q-111 53 -111 500 q-156 -186 -241 -407h-93q-37 166 -37 241v74l19 185h-37q-67 -92 -278 -519l-37 -19q-32 0 -56 93z" />
<glyph unicode="n" horiz-adv-x="715" d="M60 223q0 189 37 445q-18 30 -18 92q5 37 37 37q74 -27 74 -55l-37 -297l37 -18q28 145 315 482h56l18 -112q-14 -74 -37 -74l19 -37q-38 -194 -38 -296q38 -270 112 -334v-56h-74q-116 50 -130 427q0 11 18 241q-62 -56 -278 -482q-65 -19 -74 -19z" />
<glyph unicode="o" horiz-adv-x="733" d="M60 445v93q0 198 371 297q191 0 222 -279v-18q0 -223 -315 -445h-74q-204 0 -204 352zM171 334q0 -100 74 -130h75q70 44 203 297q-50 123 -111 148q-241 -61 -241 -241v-74z" />
<glyph unicode="p" horiz-adv-x="956" d="M60 612v19q98 148 575 148q241 -37 241 -167q-174 -245 -482 -371v-204q-56 -766 -56 -834l-37 -18h-37q-37 0 -37 37q55 526 55 667v260l-74 18v111q74 0 74 56v278h-18l-74 -74h-37q-92 49 -93 74zM412 390q255 134 352 222v37l-203 37q-149 -25 -149 -55v-241z" />
<glyph unicode="q" d="M60 390q164 389 519 389q111 -60 111 -148q-55 -97 -129 -390v-37l18 -37q135 56 167 56q32 -19 74 -19v-74q-171 0 -297 -130q-18 -418 -37 -463q19 -33 19 -74q-19 -36 -19 -56h-74q-37 0 -37 37v19q0 200 37 519q-15 0 -278 -93q-37 0 -37 37v56q352 110 352 241 q19 100 19 167q-172 -146 -278 -149q-130 37 -130 149zM171 390l56 -37q79 0 296 278v18l-18 37q-273 -121 -334 -296z" />
<glyph unicode="r" horiz-adv-x="854" d="M60 167v74q0 72 37 464l-18 37q18 36 18 55h74l19 -74q-19 0 -19 -18l37 -19q36 89 353 111q370 -51 370 -166l-37 -19q-228 74 -371 74q-281 0 -333 -500q-37 0 -37 -74h-37q-27 0 -56 55z" />
<glyph unicode="s" d="M60 0v56q6 37 37 37h37q68 -56 130 -56q434 37 463 149q-55 129 -500 278q0 29 -37 74v56q0 64 371 185q42 -37 129 -37v-74h-55q-315 -67 -315 -130q500 -167 500 -352q0 -202 -426 -241h-130q-204 0 -204 55z" />
<glyph unicode="t" horiz-adv-x="845" d="M60 649q0 37 241 93q0 18 19 18q0 19 -19 19q0 20 19 56q-19 241 -19 389v74q0 19 19 19l-19 37v92h93l18 -92v-427q0 -41 19 -74q-19 -32 -19 -74q19 0 19 -19q222 56 315 56h18v-19q-33 -90 -352 -166v-19q0 -149 -18 -538q18 -102 18 -148l-37 -18h-74q0 41 -19 74 q0 18 19 18q0 42 -19 74q19 242 19 390v148l-185 -18q-27 0 -56 55z" />
<glyph unicode="u" horiz-adv-x="677" d="M60 408q19 164 19 204q-19 102 -19 148l56 37h37q26 0 55 -55q-37 -180 -37 -204v-148l19 -130h18q26 24 112 222v93q67 6 148 222q6 38 37 38h37q27 0 56 -56q-37 -148 -37 -241q0 -124 37 -297l-37 -18h-38q-43 0 -74 167h-18l-186 -278h-18q-111 0 -167 296z" />
<glyph unicode="v" horiz-adv-x="733" d="M60 612h56q101 0 185 -334q37 5 204 371q54 93 74 93h37q37 -6 37 -37q-267 -639 -315 -649h-18q-117 158 -260 556z" />
<glyph unicode="w" horiz-adv-x="974" d="M60 797h37q103 -67 241 -426h19q0 185 148 185q130 0 222 -259h19q56 232 93 482h18q37 -6 37 -37q0 -19 -18 -19l18 -37v-204q-41 -389 -111 -389h-19q-85 46 -203 334l-38 18q-30 0 -111 -315l-37 -18h-18q-67 31 -297 685z" />
<glyph unicode="x" horiz-adv-x="807" d="M60 705v37q6 37 37 37h19l259 -167q175 260 204 260q148 0 148 -93h-18q-117 0 -241 -260q167 -132 167 -241l-56 -37l-167 167q-18 0 -259 -315h-74v19q0 59 222 370v37q-4 23 -222 186h-19z" />
<glyph unicode="y" horiz-adv-x="721" d="M-26 -500q162 531 315 927q-221 225 -296 333v37h37q143 -79 296 -259l37 -19q181 408 241 408h19l18 -37q0 -51 -185 -426l-93 -241q-74 0 -278 -723q0 -56 -37 -56h-55q0 20 -19 56z" />
<glyph unicode="z" horiz-adv-x="955" d="M60 112v37q372 408 501 574v19h-19q-45 0 -297 -56q-36 19 -55 19v55q199 75 352 75h56q136 0 148 -56v-19l-464 -519l594 56v-37q0 -80 -556 -130q0 -37 -241 -56z" />
<glyph unicode="{" horiz-adv-x="641" d="M60 327v56q6 37 37 37h19q41 0 74 -19q127 0 167 482q-19 122 -19 241v112q12 315 93 315h74q27 0 56 -56v-55q-130 -68 -130 -223v-93q0 -76 18 -148q0 -503 -204 -667v-37q56 -161 75 -761q107 -241 222 -241l19 -37q0 -37 -38 -37q-276 0 -315 427q0 605 -148 704z " />
<glyph unicode="|" horiz-adv-x="3273" d="M60 2299v74h3133v-92h-482q-42 0 -74 18q-32 -18 -74 -18h-19q-18 0 -18 18l-37 -18h-371q-67 0 -167 18q-19 0 -19 -18l-185 18h-1687zM1265 334v93q0 334 37 704h56q26 0 55 -55v-93q-55 -507 -55 -612l74 -1001l-56 -37h-18q-27 0 -56 55v56q0 19 19 19l-19 37v55 q0 19 19 19l-19 37v130q-37 547 -37 593z" />
<glyph unicode="}" horiz-adv-x="808" d="M60 -779q0 56 167 93q88 273 204 983q-69 0 -149 352q112 507 112 630q0 74 -74 111q-33 -18 -75 -18l-18 37q0 37 111 74q167 -64 167 -185q0 -157 -111 -612q38 -408 296 -408l37 -55q0 -38 -204 -56q-55 -179 -111 -723q-68 -260 -278 -260h-18q-56 19 -56 37z" />
<glyph unicode="~" horiz-adv-x="1123" d="M60 427v111q0 142 222 167q74 0 575 -204h19q36 18 55 18v37h-37q44 112 74 112h56v-19l19 -167q-36 -84 -75 -92q-189 0 -593 204h-55q-186 -32 -186 -167h-74z" />
<glyph unicode="&#xa1;" horiz-adv-x="325" d="M60 -112q0 245 56 871q-19 31 -19 93q45 37 74 37q74 -28 74 -56q0 -66 -18 -167l18 -37l-55 -426v-111q0 -18 -19 -18q37 -112 56 -112q-19 -314 -74 -314h-37q-56 11 -56 148v92zM97 1259l37 19h74q37 -6 37 -37v-93l-92 -18q-56 67 -56 129z" />
<glyph unicode="&#xa2;" horiz-adv-x="855" d="M-924 2336v37h3133v-55h-426q-165 0 -371 18q-65 -18 -185 -18v18l-38 -18h-111q-18 0 -18 18l-37 -18l-167 18q-20 0 -56 -18q-100 18 -167 18h-37l-111 -18l-37 18q-20 0 -56 -18q-127 18 -204 18h-74q-55 0 -55 -18l-93 18h-890zM21 186q0 66 316 352v315q5 37 37 37 h55q56 0 56 -74t-37 -241q144 -51 167 -111v-56q0 -26 -167 -130v-222l18 -37q223 37 297 93h37v-56q0 -77 -352 -148v-167q0 -37 -37 -37q-42 0 -74 204q-316 0 -316 278zM133 130q37 -111 204 -111v296l-19 38q-185 -120 -185 -223z" />
<glyph unicode="&#xa3;" horiz-adv-x="1052" d="M-140 -18q70 333 222 333q20 0 56 19l185 -37q93 123 93 167h-130v55q0 42 204 75q182 459 315 611h75q27 0 55 -74q-18 -148 -55 -148q-19 32 -19 74h-18q-100 -68 -241 -463h37q66 0 166 18q36 -18 56 -18v-75q-389 -19 -389 -166q-33 0 -37 -93l426 -278l111 18v-37 q0 -29 -74 -74h-93q-384 278 -463 278q-114 -195 -315 -334h-74q-93 52 -93 149zM8 -55q63 0 223 222v37l-74 19q-149 0 -149 -278z" />
<glyph unicode="&#xa4;" horiz-adv-x="1104" d="M60 964v56h37q110 0 241 -167h19q105 99 241 111q81 167 185 167q29 0 74 -74q0 -26 -148 -74q0 -29 -37 -74q148 -71 148 -186v-18l-18 -130q209 -92 222 -148v-56h-37q-62 0 -278 130q-93 -56 -148 -56h-75q-50 0 -111 37l-148 -167h-37q0 136 111 241l-56 130 q37 61 37 111q-49 13 -222 167zM394 649q0 -25 92 -93h19q151 0 185 130q-54 130 -167 130v-74h-92q-37 -6 -37 -37v-56z" />
<glyph unicode="&#xa7;" horiz-adv-x="678" d="M60 927v37l111 130v19q-55 67 -55 129v37q0 154 259 223l204 -74v-37q0 -43 -93 -56l-37 19l-37 -19l-74 37q-111 -45 -111 -111q0 -36 334 -260q37 -60 37 -111q0 -102 -149 -130q0 -42 130 -259v-56q0 -107 -222 -278l-260 56v92l93 -18h148q111 75 111 185v37 q-123 152 -333 278q-56 68 -56 130zM190 909q0 -42 167 -112q76 26 111 93v37q0 23 -111 93q-116 0 -167 -93v-18z" />
<glyph unicode="&#xa9;" horiz-adv-x="1383" d="M60 371q137 501 297 501q185 204 389 204q325 0 556 -575v-111q0 -316 -148 -316q0 -55 -56 -55v-19h37v-18q-122 -167 -537 -167q-538 97 -538 556zM171 223q192 -297 445 -297h111q371 29 371 148q50 0 93 260l-19 37l19 37q-93 464 -315 464q0 48 -149 74v-37h-111 q-289 -119 -352 -260q-93 -157 -93 -241v-185zM486 297v74q0 215 278 334h19q127 -52 167 -130v-37q0 -37 -37 -37l-74 55h-37q-204 -30 -204 -203v-19q38 -74 92 -74q55 0 241 55h19v-37q-117 -129 -260 -129q-124 0 -204 148z" />
<glyph unicode="&#xaa;" d="M60 241q204 501 445 501q167 -56 167 -186l-37 -74l37 -18l-19 -130v-56q0 -136 56 -148h18l56 37h37q0 -148 -130 -148q-148 0 -148 315q-231 -241 -371 -241q-111 38 -111 148zM153 260q26 0 55 -56q207 0 334 334v37q0 37 -37 37h-19q-135 0 -333 -334v-18z" />
<glyph unicode="&#xab;" horiz-adv-x="1325" d="M60 555q0 32 389 371q107 92 185 92q29 0 74 -74q0 -40 -333 -259l-74 -74v-19q235 0 389 -203v-56q0 -37 -37 -37h-19q-227 204 -537 204zM616 574q0 44 407 352q139 37 167 37q36 -19 56 -19v-74q-127 0 -371 -241v-37q160 0 371 -222v-56h-56q-43 0 -352 167 q-222 0 -222 93z" />
<glyph unicode="&#xac;" horiz-adv-x="1159" d="M60 685q0 37 56 37q216 0 907 111q0 -37 56 -37l-19 -185v-111q0 -19 -18 -19l18 -37v-148q0 -42 19 -74q-28 -74 -56 -74h-18q-29 0 -74 74v463q-309 -37 -445 -74l-37 18q-67 -37 -167 -37q-201 0 -222 93z" />
<glyph unicode="&#xad;" horiz-adv-x="696" d="M60 575v37q148 37 315 37h148l93 -18v-56q0 -37 -37 -37q-14 0 -111 18l-37 -18q-36 18 -56 18q-237 -37 -278 -37z" />
<glyph unicode="&#xae;" horiz-adv-x="1438" d="M60 353v222q0 290 371 519q60 -37 92 -37q189 93 371 111q259 0 371 -278q30 -35 93 -315q0 -239 -334 -575q-206 -148 -463 -148q-389 0 -501 501zM153 519q0 -390 259 -519q109 -55 186 -55q420 0 611 537v149q0 303 -259 370q-46 0 -148 19q-133 0 -520 -204 q0 19 -18 19q-111 -241 -111 -316zM431 742l74 55h37q222 -36 222 -166q0 -84 -74 -204q0 -25 334 -186q19 -36 19 -55q-38 -6 -38 -37l-407 148v-19q0 -92 -37 -92h-38q-55 18 -55 111v185q0 62 -37 260zM561 668q18 -12 18 -167q93 51 93 148l-93 37q0 -18 -18 -18z" />
<glyph unicode="&#xb0;" horiz-adv-x="622" d="M60 1335q0 104 241 204q179 0 241 -222v-19q-74 -162 -111 -167h-111q-260 30 -260 204zM190 1317q25 -75 167 -75q42 0 55 93l-74 56h-93q-26 0 -55 -56v-18z" />
<glyph unicode="&#xb1;" horiz-adv-x="956" d="M60 93v74l816 56v-74q0 -37 -37 -37h-167q-42 0 -74 -19l-37 19q-148 -38 -353 -38h-18zM153 779v56q0 49 259 92l19 130v37h55q37 -100 37 -111q-18 -36 -18 -56l37 -18h56q278 0 278 -74q0 -38 -37 -38h-334q-37 -260 -37 -352h-93q19 218 19 315v37h-56z" />
<glyph unicode="&#xb2;" horiz-adv-x="714" d="M60 833v56q185 214 185 259h-18q-56 13 -74 74q74 223 240 223h56q29 0 74 -75v-18q0 -90 -241 -352q0 -20 -18 -56h222q148 0 148 -111q-37 -6 -37 -37q-127 19 -204 19q-102 0 -296 -37z" />
<glyph unicode="&#xb3;" horiz-adv-x="863" d="M60 204v37q6 37 37 37h56q96 -92 129 -92q390 163 390 296v37q0 29 -74 75h-93l-111 -19q-33 19 -74 19v92q81 6 333 223q0 37 -37 37q-222 -37 -278 -93h-74q-37 0 -37 37v37q217 93 352 93h130q27 0 55 -56v-18q0 -80 -166 -223q185 -118 185 -241q0 -201 -482 -370 q-83 0 -111 -19q-84 31 -130 111z" />
<glyph unicode="&#xb5;" horiz-adv-x="1140" d="M60 92q0 82 222 519q111 187 223 667h55q37 0 56 -204q-19 -122 -19 -241v-55h37q225 191 334 481h55q37 -6 37 -37v-37q-111 -293 -111 -426v-111q37 -132 37 -148v-37h-74q-92 0 -92 315q-150 -149 -241 -149q-18 0 -130 93q-278 -612 -278 -667h-74q-37 0 -37 37z" />
<glyph unicode="&#xb6;" horiz-adv-x="919" d="M60 983v55q0 131 278 241q41 56 241 56l37 -56v-55q-74 -65 -74 -130v-93h93q18 204 74 353h18q32 0 56 -93q-74 -494 -74 -853v-74q130 0 130 -93q-27 -18 -204 -37q-14 0 -112 19l-296 -74q-74 27 -74 55v19q0 31 222 111q19 32 19 74v408q0 37 -223 56zM505 334h56 l55 37q0 20 -18 56q18 241 18 389v93h-37q-42 0 -74 -130q0 -19 18 -19l-18 -92v-334z" />
<glyph unicode="&#xb9;" horiz-adv-x="548" d="M60 408q0 46 297 649q0 93 37 93h37q37 -6 37 -37q-37 -357 -37 -501v-445q0 -37 -37 -37h-19q-37 0 -37 37v556h-37q-138 -345 -185 -352h-19q-37 0 -37 37z" />
<glyph unicode="&#xba;" horiz-adv-x="733" d="M60 445v93q0 198 371 297q191 0 222 -279v-18q0 -223 -315 -445h-74q-204 0 -204 352zM171 334q0 -100 74 -130h75q70 44 203 297q-50 123 -111 148q-241 -61 -241 -241v-74z" />
<glyph unicode="&#xbb;" horiz-adv-x="1381" d="M60 796v74h37q179 -11 574 -389v-18q0 -68 -537 -223l-18 37v37l315 204zM523 55v74q117 134 556 334v18q-190 153 -482 334v18l37 56q195 0 667 -426q-78 -127 -667 -352q0 -19 -74 -56h-37z" />
<glyph unicode="&#xbf;" horiz-adv-x="1122" d="M60 296q89 89 667 426v37l-37 56v74q6 37 37 37q119 0 148 -167v-37q-34 -103 -648 -426l-37 -56v-18q190 -111 426 -148q244 37 370 129h19q37 -5 37 -37q0 -106 -389 -204h-93q-500 60 -500 334zM505 1185v37q5 37 37 37h111q37 -6 37 -37v-18q-37 -93 -130 -93z" />
<glyph unicode="&#xc0;" horiz-adv-x="936" d="M60 1963v93h19q191 0 333 -389v-37h-37q-241 333 -315 333zM134 259v18q74 294 74 352h-18q-37 0 -37 37q129 78 129 130q130 420 223 593l-19 74q19 36 19 56h111q125 0 167 -704q46 0 74 -519l-19 -93h-55q-38 0 -38 37v149q0 157 -37 240l-185 -18h-148 q-51 0 -148 -371l-37 -18h-19q-37 0 -37 37zM393 741l38 -19h222q37 0 37 37q-37 48 -74 371l-37 18q-74 -50 -186 -407z" />
<glyph unicode="&#xc1;" horiz-adv-x="1140" d="M60 185v37q333 933 333 1056l-18 37q25 130 56 130h37q68 0 203 -501q334 -678 334 -796v-19q0 -37 -37 -37h-56q0 90 -148 408l-130 -19h-259l-93 19q-37 -72 -129 -408h-74zM319 629q6 -37 37 -37h352v37q-129 241 -203 464h-19q-28 -23 -148 -390q-19 0 -19 -55v-19z M745 1500v19q0 138 241 352h37q37 -6 37 -37v-19q-233 -280 -296 -315h-19z" />
<glyph unicode="&#xc2;" horiz-adv-x="937" d="M60 222v18q232 1075 352 1075l37 18h37q67 0 204 -667q26 -2 167 -518v-19h-37q-46 0 -204 426h-19q-407 -41 -407 -129q0 -260 -74 -260q-27 0 -56 56zM171 1463v56q124 278 204 278q278 -203 278 -334q-36 -18 -56 -18q-37 0 -185 185h-37q0 -74 -111 -167h-93z M264 629h18q124 0 297 37v19q-111 500 -148 500h-19z" />
<glyph unicode="&#xc3;" horiz-adv-x="1103" d="M60 240q0 93 241 778q74 136 74 297v37q46 0 93 37h37q22 0 111 -334q24 -6 315 -722q92 -117 92 -241v-37q0 -37 -37 -37h-37q-37 0 -37 37l19 37q-23 86 -167 334q-514 -62 -593 -112q19 -35 19 -55q0 -204 -56 -204h-18q-46 0 -56 185zM116 1500q44 204 129 204 q123 0 389 -56h37q0 58 112 130h18q37 -6 37 -37v-37q-33 -41 -55 -185h-19l-463 74q-88 -167 -111 -167h-19q-28 0 -55 74zM245 481h19q463 24 463 74q-130 273 -241 575q-104 -108 -241 -649z" />
<glyph unicode="&#xc4;" horiz-adv-x="1085" d="M60 111v92q130 195 333 1038q0 111 149 111q37 -37 74 -278q31 -55 185 -574q204 -437 204 -556l-56 -37h-18q-25 0 -111 278q-199 448 -315 908h-19q-185 -589 -185 -630q352 0 352 -74q-19 -36 -19 -56h-352q-54 0 -129 -278h-37q-27 0 -56 56zM245 1537v37q6 37 37 37 h37q27 0 56 -55v-19q0 -37 -37 -37h-56q-37 0 -37 37zM634 1519q19 36 19 55h37q27 0 55 -55v-56h-74q-37 0 -37 56z" />
<glyph unicode="&#xc5;" horiz-adv-x="1140" d="M60 55v56q74 302 389 1204q-18 36 -18 55q0 35 111 93h37q0 -101 185 -408q148 -229 296 -815v-74q0 -148 -111 -148q-37 0 -37 37q37 61 37 111v56q-143 577 -389 963h-37l-222 -667q278 19 407 19h112v-56q-8 -64 -538 -92q-25 -7 -129 -371h-56q-37 0 -37 37z M264 1759q194 260 315 260q259 -25 259 -222q-91 -278 -315 -278h-37q-167 0 -222 240zM412 1667q60 -37 93 -37q97 0 166 111v37q0 37 -37 37h-18q-204 0 -204 -148z" />
<glyph unicode="&#xc6;" horiz-adv-x="1474" d="M60 37q0 203 222 629q135 375 223 519q0 29 74 74h37q38 -8 74 -92l537 37q36 -19 56 -19q30 19 92 19l19 -37v-19q0 -68 -686 -93l-18 -111q0 -159 37 -259q250 18 370 18h149q37 -5 37 -37v-18q0 -27 -56 -56q-177 0 -463 -37v-37q0 -93 93 -296q31 14 222 37 q185 -15 185 -56v-18q0 -61 -574 -93l-19 37v37l56 74q-56 125 -56 149q-426 -46 -426 -167q-74 -241 -111 -241h-18q-27 0 -56 56zM356 463l186 18h92q-74 357 -74 482q-52 -12 -204 -463v-37z" />
<glyph unicode="&#xc7;" horiz-adv-x="1233" d="M60 796q0 324 556 630q95 56 185 56q109 0 185 -149q-18 -74 -74 -74q-92 56 -148 56q-251 0 -519 -315q-55 -122 -74 -259q0 -343 297 -538h74q0 56 37 56h55q32 0 56 -111q102 0 445 129h18v-74q-244 -166 -482 -166h-37q93 -216 93 -241q-56 -223 -204 -223h-37 q-29 0 -74 75q19 35 19 55h111q38 8 74 93q-152 308 -241 315q-315 197 -315 685z" />
<glyph unicode="&#xc8;" horiz-adv-x="992" d="M60 1871q19 36 19 55h74q249 -149 278 -204v-18q0 -37 -38 -37q-89 0 -333 204zM97 778q74 0 74 444q-18 111 -55 111l18 112h56q29 0 111 -149l37 19q394 18 463 18v-55q-283 -93 -463 -93h-37l-56 -352q61 -37 111 -37h37q121 0 371 19l19 -37v-37l-278 -75l-93 19 h-148q-37 -6 -37 -37v-130l18 -111q-18 -36 -18 -55q18 -74 18 -130h-18q18 -31 18 -93q511 19 649 19l18 -37v-37q0 -37 -37 -37q-253 0 -667 -19q-74 28 -74 56v555q0 17 -37 149z" />
<glyph unicode="&#xc9;" horiz-adv-x="1214" d="M60 537v55q9 48 167 93l74 500q-19 31 -19 93l37 18h56q0 -92 74 -92l574 74l19 -37q0 -49 -630 -186q-74 -244 -74 -370v-37q162 0 648 74v-37q0 -90 -685 -185v-19q0 -421 278 -519h55q219 0 445 149h18q38 -6 38 -37q-202 -223 -445 -223h-93q-189 0 -333 260 q-56 90 -56 241v129l-18 37q-61 -37 -93 -37zM708 1445v37l186 333q32 130 74 130q36 0 74 -111q-247 -425 -297 -427h-18z" />
<glyph unicode="&#xca;" horiz-adv-x="937" d="M60 352v37l130 963l-19 37v74q6 37 37 37h74l19 -93q-19 -164 -19 -203q25 0 538 92h37v-37q0 -93 -575 -166q-37 -140 -37 -260v-55l186 -19q46 0 148 19q36 -19 55 -19v-74q-146 -33 -426 -56q-37 -158 -37 -277q32 -149 148 -149q325 0 464 111q37 -5 37 -37v-37 q-72 -148 -464 -148h-74q-197 0 -222 260zM245 1889q186 260 278 260q54 -21 241 -390q19 0 19 -18v-37q0 -37 -38 -37q-26 0 -222 259h-37q-148 -110 -148 -204h-19q-41 0 -74 167z" />
<glyph unicode="&#xcb;" horiz-adv-x="918" d="M60 370q23 480 56 537l-19 37v37q0 51 74 204q-18 36 -18 56q18 36 18 55h56q37 -5 37 -37l-19 -129q19 0 19 -19q226 56 389 56l18 -37l-444 -167l-37 -297l37 -18q107 0 370 37l19 -37q0 -70 -426 -148l-19 -93v-18q37 -260 204 -260h93q162 9 315 111h18q37 -5 37 -37 v-18q-184 -185 -426 -185q-300 0 -352 370zM227 1593v55h55q37 -5 37 -37v-18q0 -37 -37 -37h-18q-37 0 -37 37z" />
<glyph unicode="&#xcc;" horiz-adv-x="732" d="M60 1834v55h19q112 0 259 -185v-56h-19q-100 0 -259 186zM505 259l37 278q-19 302 -19 593v74l-18 222h92q37 -120 37 -167v-185q0 -42 19 -74q-19 -33 -19 -74q0 -47 19 -148l-19 -93q0 -42 19 -74q-11 -371 -74 -371h-37z" />
<glyph unicode="&#xcd;" horiz-adv-x="547" d="M60 1111h19l-19 37v148l19 93h18q93 0 93 -371v-296q0 -62 18 -93l-37 -426h-92v93q0 42 18 74q-18 36 -18 56q0 55 18 55l-18 185v352zM153 1685v74q163 294 259 352h37q0 -19 19 -55l-260 -371h-55z" />
<glyph unicode="&#xce;" horiz-adv-x="714" d="M60 1704q218 333 241 333h74l259 -370v-56h-37q-85 0 -241 186q-167 -186 -203 -186q-50 0 -93 93zM208 277v37q0 47 56 223q0 165 18 796q-18 36 -18 56l55 37h19q62 0 74 -296q-37 -661 -56 -686q19 -32 19 -74v-37l-19 -222h-55q-56 0 -93 166z" />
<glyph unicode="&#xcf;" horiz-adv-x="474" d="M60 1797v55h74q37 -6 37 -37v-56h-74q-37 0 -37 38zM245 796q19 174 19 482v74q0 18 18 18l-18 37v19q6 37 37 37h18q27 0 56 -56v-18q0 -137 18 -204l-37 -407q19 -141 37 -667l-37 -19h-37q-55 0 -74 704z" />
<glyph unicode="&#xd0;" horiz-adv-x="1326" d="M60 759q28 74 56 74h92l185 -18v18q0 167 -55 371q37 0 37 55h56q397 0 759 -333q56 -104 56 -148q0 -476 -686 -612q-55 0 -55 -55h-37q-45 0 -75 148l38 241l-19 37q19 32 19 74l-19 74h-37q-76 0 -148 -19q-167 10 -167 93zM505 1130l37 -334q99 0 296 -55v-19 q0 -43 -296 -56l-19 -92v-111l19 -130h18q463 85 463 204q112 75 112 185v19q0 248 -593 389h-37z" />
<glyph unicode="&#xd1;" horiz-adv-x="1103" d="M60 222q74 600 74 982l-37 129v19h19q277 0 704 -667h18q19 185 19 278v426q5 37 37 37h18q0 -25 111 -519q0 -127 -55 -463l18 -37q-36 -84 -74 -93h-37q-231 532 -537 779q0 27 -74 55q-41 -635 -111 -945q-36 -18 -56 -18q0 37 -37 37zM264 1722q0 106 167 149 q41 0 222 -56q74 130 92 130h19q37 0 37 -56q-18 -167 -74 -167h-93q-194 56 -203 56q-66 0 -93 -148h-56z" />
<glyph unicode="&#xd2;" horiz-adv-x="1363" d="M60 629q0 398 556 723l74 18q445 -69 445 -166q70 0 148 -297q0 -541 -389 -759q-122 -74 -278 -74h-93q-417 0 -463 555zM60 1945q6 37 37 37q118 0 426 -334v-18h-92q-232 140 -371 315zM190 592q0 -407 370 -407h74q408 0 538 648v56q0 286 -482 352 q-345 -133 -482 -463l-18 -130v-56z" />
<glyph unicode="&#xd3;" horiz-adv-x="1363" d="M60 574q0 454 537 722h111q238 -26 501 -315q74 -190 74 -296q0 -155 -241 -519q-220 -148 -537 -148q-168 0 -408 352q0 10 -37 204zM190 500q0 -227 352 -371q481 51 481 241q45 0 149 296v75q-104 370 -334 370q0 33 -167 93q-481 -213 -481 -593v-111zM820 1630v55 q261 334 352 334l55 -74v-19q-187 -118 -389 -296h-18z" />
<glyph unicode="&#xd4;" horiz-adv-x="1362" d="M60 648v111q0 508 574 723h56q60 -93 185 -93q308 0 408 -445v-166q0 -518 -426 -723q-74 -18 -130 -18q-261 0 -445 185q-147 166 -222 426zM171 741q0 -330 371 -556q170 -37 203 -37q408 139 408 481q23 0 37 260q-44 389 -370 389q0 32 -93 37h-74q0 55 -56 55 q-426 -250 -426 -629zM393 1722v19q107 188 186 241h37q137 -85 315 -352q0 -37 -37 -37h-37q-223 191 -223 259h-18q-47 0 -93 -167l-37 -18h-37q-27 0 -56 55z" />
<glyph unicode="&#xd5;" horiz-adv-x="1492" d="M60 722v56q0 296 463 667q33 18 74 18h37l93 -18v-38l-19 -37q387 -62 519 -222q172 -167 185 -352v-111q0 -388 -333 -519q-143 -55 -241 -55q-685 111 -685 278q-74 0 -93 333zM171 759q0 -445 315 -445q203 -92 352 -92q379 0 445 370q18 67 18 204q-98 408 -407 408 q-134 92 -371 92q-352 -294 -352 -537zM338 1685v19q90 167 167 167q156 -37 407 -37h111q37 0 56 129h37l74 -55q0 -135 -93 -204l-92 18h-56q-206 0 -444 37q0 -88 -149 -111z" />
<glyph unicode="&#xd6;" horiz-adv-x="1530" d="M60 500v18q0 486 574 871l241 37q463 -80 463 -333l111 -371q0 -449 -277 -574q-334 -148 -612 -148q-500 112 -500 500zM171 537q0 -280 297 -389q67 -37 148 -37q667 97 667 315q37 71 37 222q0 339 -185 593q-33 32 -223 55q-474 0 -704 -593q-37 -138 -37 -166z M468 1759h74q45 -37 74 -37v-37q0 -37 -37 -37q-111 0 -111 111zM1023 1630v55h37l93 -18v-56q0 -37 -37 -37h-37q-27 0 -56 56z" />
<glyph unicode="&#xd8;" horiz-adv-x="1233" d="M60 629v93q0 536 482 741l111 19q125 -56 148 -56q222 352 222 408h56q37 -6 37 -37q0 -36 -204 -408v-37q167 0 241 -371v-166q0 -261 -333 -649q-98 -74 -204 -74h-56q-51 0 -278 74q-55 -74 -111 -296l-37 -19q-36 19 -55 19v18q0 95 129 352q-146 233 -148 389z M153 666q62 -296 111 -296q88 99 352 667q111 192 111 259q0 52 -185 74h-19q-370 -268 -370 -629v-75zM338 277q174 -92 241 -92q220 0 426 407q18 0 74 352q-70 315 -241 315z" />
<glyph unicode="&#xd9;" horiz-adv-x="1122" d="M60 685q74 571 74 667v74q6 37 37 37h19q37 -6 37 -37v-130l-74 -685q0 -309 148 -408h130q518 302 518 927v74q0 68 -74 185v93q6 37 37 37h37q93 -220 93 -371q0 -352 -74 -352v-130q-102 -250 -278 -407q0 -56 -315 -167q-253 0 -296 334q-19 157 -19 259zM208 1963 v19l37 18q154 0 315 -389v-37l-37 -18z" />
<glyph unicode="&#xda;" horiz-adv-x="1066" d="M60 741v166q0 157 19 463h18q74 -18 74 -111v-166q0 -19 -18 -19l18 -37v-93q0 -18 -18 -18l18 -37q0 -119 -18 -241q53 -408 407 -408q247 0 334 686q0 142 -37 333q18 36 18 56h19q92 -59 92 -371q0 -518 -222 -722q-99 -74 -167 -74h-148q-243 0 -370 352 q-19 122 -19 241zM486 1407v19q129 426 334 426l18 -37v-18q-286 -390 -315 -390h-37z" />
<glyph unicode="&#xdb;" horiz-adv-x="1103" d="M60 352q0 505 93 1130h55q37 -6 37 -37v-93q-111 -814 -111 -926q62 -389 371 -389q126 0 333 296q93 204 93 593q0 37 -56 296v37h74q74 -167 74 -444q0 -503 -278 -760q-121 -130 -277 -130q-224 0 -389 315zM227 1593q151 278 166 278h38q167 -84 259 -241v-37 q0 -37 -37 -37q-34 2 -167 166l-37 19q-131 -193 -167 -222q-46 0 -55 74z" />
<glyph unicode="&#xdc;" horiz-adv-x="1196" d="M60 852v18q0 593 148 593l19 -37q-56 -323 -56 -408v-277q0 -19 -18 -19q59 -630 296 -630h19q292 0 481 445q56 166 74 481q-18 171 -92 241v74h74q92 0 111 -278q0 -796 -371 -963q0 -43 -259 -111q-239 0 -352 278q-74 167 -74 593zM264 1593v18q0 27 55 56h37 q27 0 56 -56v-37l-93 -18h-18q-37 0 -37 37zM690 1574v37q6 37 37 37h37q37 -5 37 -37v-55l-93 -19z" />
<glyph unicode="&#xdd;" horiz-adv-x="992" d="M60 1500v19h19q173 0 463 -371q18 -36 18 -55h19q31 0 259 518l37 19q37 -6 37 -37v-19q0 -38 -444 -1019q-93 -352 -186 -593q19 -32 19 -74v-18q0 -37 -37 -37h-19q-28 0 -55 74q0 111 333 1019q-20 0 -111 241q-163 120 -352 333zM505 1611q122 253 278 408 q37 -6 37 -37v-37q-233 -354 -278 -371q-37 0 -37 37z" />
<glyph unicode="&#xde;" horiz-adv-x="881" d="M60 981q56 389 93 389h18q50 -7 74 -92q-55 -88 -74 -241q36 -19 56 -19q574 0 574 -148v-37q0 -122 -537 -278q-56 0 -56 -37v-18q0 -93 19 -278l-37 -19q-111 0 -111 723q-19 0 -19 55zM208 722l19 -37q426 121 426 167v18q-294 37 -371 37q-74 -28 -74 -55v-130z" />
<glyph unicode="&#xdf;" horiz-adv-x="939" d="M60 296v241q0 621 352 704q0 18 56 18q74 0 166 -129v-75q0 -50 -92 -203q407 -97 407 -278v-37q-249 -317 -630 -463q-111 0 -111 -37v-56l19 -185l-56 -37h-55q-56 300 -56 537zM171 518q0 -292 130 -315q231 69 537 371v18q-87 130 -370 130h-37q-18 0 -149 -37 q-26 0 -55 56v37q288 177 296 259v56q0 37 -37 37q-315 0 -315 -519v-93z" />
<glyph unicode="&#xe0;" horiz-adv-x="1047" d="M60 1259v19l37 18q51 0 296 -296v-19h-37q-139 0 -296 278zM116 277v75q155 444 444 444q167 -24 167 -167q-37 -60 -37 -111q120 -185 167 -185h111v-56q0 -42 -93 -55q-101 0 -278 204l-278 -241h-111q-25 0 -92 92zM227 296h55q24 0 297 296q-36 19 -56 19 q-127 -45 -296 -259v-56z" />
<glyph unicode="&#xe1;" horiz-adv-x="993" d="M60 352q0 239 426 463q222 0 222 -241q-37 -60 -37 -93q0 -148 149 -167h92v-37q-30 -74 -129 -74q-133 0 -204 204h-37q-211 -204 -315 -204h-19q-148 0 -148 149zM153 333l37 -19h37q201 0 333 334h-37q-244 0 -370 -296v-19zM523 1037q167 278 297 278l18 -37v-37 q-241 -201 -241 -241h-37q-37 0 -37 37z" />
<glyph unicode="&#xe2;" horiz-adv-x="1067" d="M60 259v18q0 260 389 501h37q167 -42 167 -93v-222q104 -204 241 -204h92v-37q-18 -56 -111 -56h-37q-126 0 -278 223q-222 -223 -370 -223h-37q-25 0 -93 93zM171 259q178 0 371 278v37q0 37 -56 37q-176 0 -315 -278v-74zM227 963v18q104 222 129 223h19q84 0 333 -223 v-18q0 -37 -37 -37h-18q-86 0 -241 148q-52 -111 -185 -111z" />
<glyph unicode="&#xe3;" horiz-adv-x="1011" d="M60 314q0 175 333 389h38q166 0 259 -259l111 -92l93 18h37v-56q0 -26 -56 -55h-92q-93 0 -204 148h-19q-280 -241 -370 -241q-130 37 -130 148zM116 1037q25 93 129 93q49 0 204 -112l130 130h55v-18q0 -117 -148 -241q-69 0 -241 129q-18 -27 -18 -111h-37 q-74 30 -74 130zM171 314l37 -18q101 0 278 222v37q-37 0 -37 19q-169 0 -278 -260z" />
<glyph unicode="&#xe4;" horiz-adv-x="1066" d="M60 333q134 362 408 500h37q95 -23 185 -241q-56 -78 -56 -148q37 -130 149 -130h18l148 93h37v-37q-116 -167 -241 -167q-203 72 -203 223h-19q-247 -223 -296 -223h-37q-83 0 -130 130zM171 352q0 -38 56 -38q91 0 315 315v19q0 27 -56 55h-37q-180 -104 -278 -314v-37 zM264 1093q18 0 18 18l111 -18v-93h-111zM616 1037v18q6 38 37 38h18q37 -6 37 -38v-18q0 -37 -37 -37h-18q-37 0 -37 37z" />
<glyph unicode="&#xe5;" horiz-adv-x="1048" d="M60 500q227 389 426 389q0 18 19 18q97 0 148 -129q0 -80 -56 -278q40 -167 148 -167l223 93v-19q-128 -185 -241 -185q-124 0 -241 241h-18q-83 -111 -241 -111h-19q-148 0 -148 148zM153 518q18 -32 18 -74h37q199 0 334 241v37q0 46 -74 56q-144 -47 -315 -260z M338 1148v93q167 149 167 185l37 19h74q108 -62 129 -167q-101 -241 -259 -241q-70 0 -148 111zM449 1185q0 -37 56 -37q84 36 92 74v37q0 37 -37 37h-18q0 -92 -93 -92v-19z" />
<glyph unicode="&#xe6;" horiz-adv-x="1289" d="M60 370v93l148 166q-26 0 -55 56v56q104 148 222 148h37q114 0 185 -130q172 93 278 93q185 -25 185 -186q-193 -185 -500 -185q0 -83 130 -148q58 0 500 111l19 -37v-18q-71 -86 -501 -186l-37 19q-36 -19 -55 -19q-124 56 -204 130q-129 -37 -222 -37q-130 37 -130 74z M208 407l148 37v37q0 37 -37 37h-18q-25 0 -93 -92v-19zM264 648q68 37 148 37h56v37q0 37 -37 37h-19q-110 0 -148 -111zM597 592h56q32 0 204 74v19h-56q-204 -42 -204 -93z" />
<glyph unicode="&#xe7;" horiz-adv-x="863" d="M60 518q0 264 445 500h37q92 -11 92 -111q0 -37 -37 -37h-18q-45 37 -74 37q-334 -181 -334 -370q0 -162 241 -185h74q57 0 278 74l19 -37q0 -58 -371 -167q-93 -167 -93 -185h-74v18q0 56 74 185q-259 106 -259 278z" />
<glyph unicode="&#xe8;" horiz-adv-x="1177" d="M60 1407v56h19q82 0 389 -241q0 -37 -56 -37q-139 0 -352 222zM245 426v92q0 241 389 389q113 0 204 -129v-19q-74 -204 -222 -204q0 -37 -93 -37h-148q-37 0 -37 -55q72 -186 315 -186q165 0 444 167v-74q-266 -204 -444 -204h-37q-371 64 -371 260zM393 611h19 q219 0 296 111q0 14 -55 56q-260 -100 -260 -149v-18z" />
<glyph unicode="&#xe9;" horiz-adv-x="1048" d="M60 296q0 166 352 352h74q111 0 111 -111v-37q-199 -167 -426 -167v-74q176 -74 204 -74q169 0 537 185h37v-37q-87 -141 -537 -259h-37q-315 58 -315 222zM560 870v19q0 119 260 407q29 0 74 37h55l19 -92q-94 0 -371 -371h-37z" />
<glyph unicode="&#xea;" horiz-adv-x="844" d="M60 185v92q0 237 333 501q42 0 75 18q111 -29 111 -130v-55q0 -192 -167 -259q-241 -73 -241 -112q24 -166 167 -166h37q283 102 370 185h19v-37q0 -65 -315 -241q-32 -19 -74 -19h-37q-278 48 -278 223zM227 389q259 84 259 222l-37 18q-222 -92 -222 -240zM264 1055 q24 89 222 297h19q136 -188 166 -352v-19h-92q-74 204 -111 204q-112 -142 -112 -204h-37q-46 0 -55 74z" />
<glyph unicode="&#xeb;" horiz-adv-x="937" d="M60 463q291 389 426 389h56q29 0 74 -74q0 -175 -389 -352v-37q46 -112 166 -112h19q131 0 426 130h19v-18q0 -122 -445 -223h-19q-219 0 -333 297zM227 1222v19q0 26 55 55q85 -36 93 -74v-18q0 -37 -37 -37h-56q-26 0 -55 55zM523 1130v18q6 37 37 37h19q45 -37 74 -37 v-55h-93q-37 0 -37 37z" />
<glyph unicode="&#xec;" horiz-adv-x="603" d="M60 1519h56q277 -233 277 -371v-74h-18q-315 364 -315 445zM412 203v315q0 42 19 74q-19 33 -19 74v130q6 37 37 37h19q37 0 55 -130q-11 -166 -37 -166l19 -93v-111q0 -42 -19 -74q19 -33 19 -74q0 -37 -37 -37q-27 0 -56 55z" />
<glyph unicode="&#xed;" horiz-adv-x="436" d="M60 703l37 19h19q40 0 74 -148q0 -84 -37 -408h-37q-37 0 -37 37v371zM79 1018v56q123 233 222 296h37l18 -92q-19 0 -259 -260h-18z" />
<glyph unicode="&#xee;" horiz-adv-x="492" d="M60 796q81 334 111 334h56q26 0 185 -260v-18q0 -37 -37 -37q-111 45 -111 111h-19q-92 -47 -92 -167h-56q-37 0 -37 37zM134 37v240q25 297 74 297l56 -37l-37 -352l18 -37q-18 -33 -18 -74q18 -98 18 -112q-18 -35 -18 -55h-19q-74 30 -74 130z" />
<glyph unicode="&#xef;" horiz-adv-x="455" d="M60 926v55h37q27 0 56 -55q0 -37 -37 -37h-19q-37 0 -37 37zM153 666h37q80 0 92 -296q-37 -296 -37 -315h-18q-56 19 -56 111q0 48 -18 500zM245 852v37q6 37 37 37h19q29 0 74 -74v-19h-37z" />
<glyph unicode="&#xf0;" horiz-adv-x="955" d="M60 1407v56l111 19q108 0 185 -56q27 0 315 130h74l19 -37q0 -21 -222 -186q333 -264 333 -407q0 -326 -352 -593l-130 -19q-277 103 -277 223q0 159 481 407q61 37 111 37v19q-188 216 -296 259l-259 -204q-37 0 -37 38v18q0 76 129 204v37h-18l-130 -19q0 29 -37 74z M356 500l130 -37q259 235 259 407v74q-389 -272 -389 -444z" />
<glyph unicode="&#xf1;" horiz-adv-x="751" d="M60 815h93q74 -170 74 -334q-19 0 -19 -18l37 -19q82 273 223 389q148 0 148 -148h-19q19 -36 19 -56q0 -18 -19 -18q19 -247 74 -297v-18q0 -37 -37 -37h-74q-92 340 -92 370h-19q0 -95 -222 -426h-56q-60 0 -74 538q-37 0 -37 74zM134 1037v93q71 129 93 129h18 q33 0 204 -74l93 56h37v-37q0 -96 -56 -111h-92q-47 0 -167 37q-49 -92 -74 -93h-56z" />
<glyph unicode="&#xf2;" horiz-adv-x="825" d="M60 1445l37 18h19q107 0 277 -315q-35 -18 -55 -18q-278 162 -278 315zM153 296v130q85 426 370 426q14 0 111 18l111 -148v-111q0 -281 -389 -426h-37q-102 0 -166 111zM264 352q0 -27 55 -56q156 0 278 259v74q0 37 -37 37q-251 0 -296 -222v-92z" />
<glyph unicode="&#xf3;" horiz-adv-x="1011" d="M60 370q99 445 371 445q152 0 240 -223q0 -214 -315 -426l-111 -18q-185 0 -185 222zM171 314q19 -74 93 -74q129 0 278 297v18q-56 86 -56 111h-37q-69 -64 -185 -74q-93 -104 -93 -278zM597 1148q53 144 241 297h37q27 0 56 -56q-182 -149 -297 -296q-37 0 -37 55z" />
<glyph unicode="&#xf4;" horiz-adv-x="769" d="M60 370v241q0 219 371 315h37q222 -92 222 -297v-129q-167 -352 -408 -352h-18q-153 0 -204 222zM153 370q54 -130 166 -130q278 154 278 352q0 204 -185 204q-38 0 -74 -93q-161 0 -185 -333zM208 1185q0 78 167 278h37q18 0 222 -296v-19q0 -37 -37 -37 q-68 13 -204 167q-98 -111 -129 -111q-36 18 -56 18z" />
<glyph unicode="&#xf5;" horiz-adv-x="863" d="M60 555q89 278 389 278h56q278 -91 278 -259v-37q-74 -371 -427 -371q-237 0 -259 371zM153 1074q0 111 111 111h37q55 0 222 -92q111 44 111 111l-18 92l37 19q74 -30 74 -130v-55q-74 -149 -222 -149q-154 93 -204 93h-19q-37 0 -37 -74h-37q-46 0 -55 74zM208 463 q0 -130 148 -204q250 0 315 278q-71 166 -240 166h-19q-204 0 -204 -240z" />
<glyph unicode="&#xf6;" horiz-adv-x="843" d="M60 518v37q105 148 222 148h149q314 -52 314 -314q19 0 19 -19q0 -210 -426 -315q-259 27 -259 241q0 75 37 222h-56zM190 259q47 -93 148 -93q174 0 296 167q-43 259 -241 259q-203 -46 -203 -222v-111zM245 981v19q6 37 37 37q111 -12 111 -56q0 -37 -37 -37h-74 q-37 0 -37 37zM468 981v37q99 0 129 -74v-18h-18q-96 0 -111 55z" />
<glyph unicode="&#xf8;" horiz-adv-x="973" d="M60 222v37q0 210 315 426q135 0 259 352q126 195 186 222h37q37 -6 37 -37v-37q-135 -129 -278 -463q204 -88 204 -315q-77 -206 -352 -333q-260 -37 -260 -260v-55h-55v74l18 222q-74 0 -111 167zM171 203q6 -37 37 -37q76 67 167 352q-204 -127 -204 -315zM338 148 q370 122 370 296q0 83 -148 130q-200 -261 -222 -426z" />
<glyph unicode="&#xf9;" horiz-adv-x="770" d="M60 1370v19h37q144 0 278 -259q0 -37 -37 -37h-19q-59 32 -259 277zM79 722v148h74q47 -404 92 -518l37 -19q223 272 223 537l55 56l111 -111v-334l19 -129l-37 -19q-64 0 -93 204h-18q-135 -315 -260 -315q-203 0 -203 500z" />
<glyph unicode="&#xfa;" horiz-adv-x="918" d="M60 592q37 121 37 167v56h56q27 0 55 -74q-37 -167 -55 -167q37 -241 129 -241q105 0 241 537q28 74 56 74h18q37 0 37 -55q0 -47 -18 -148q0 -244 222 -445q0 -37 -55 -37q-223 126 -223 241h-37q-6 -117 -185 -260h-56q-222 0 -222 352zM356 963v37q22 179 223 370h37 q37 -5 37 -37v-18q-131 -112 -241 -352h-56z" />
<glyph unicode="&#xfb;" horiz-adv-x="844" d="M60 574q19 39 37 167h37q37 -6 37 -38l-18 -74q18 -32 18 -74h-18q51 -333 129 -333q93 35 93 148q0 77 -19 204q0 33 112 111q0 130 92 130q37 -46 37 -74q0 -575 167 -575v-18q0 -37 -37 -37q-155 0 -185 241h-37q-17 -91 -167 -223h-111q-111 0 -167 445zM97 1037v56 q148 204 148 240h93q148 -129 148 -222l-37 -18q-93 25 -93 74h-37q-122 -130 -222 -130z" />
<glyph unicode="&#xfc;" horiz-adv-x="881" d="M60 555v37q19 278 93 278q26 0 55 -55q-55 -85 -55 -297q0 -33 55 -166q62 0 315 463l19 111h18l93 -19l-19 -166q46 -303 167 -445v-19q-20 0 -56 -18q-112 0 -185 333h-37q-162 -352 -315 -352q-148 51 -148 315zM208 1167v74h37q29 0 74 -74q-60 -37 -92 -37z" />
<glyph unicode="&#xfd;" horiz-adv-x="974" d="M60 -593q73 281 371 852v18q-126 0 -186 501v18q167 -27 167 -333q37 -74 56 -74q89 0 333 592h56q37 -5 37 -37q0 -117 -463 -963q-260 -473 -260 -574q19 -33 19 -74l-37 -19h-74zM523 907q99 334 185 334q0 55 37 55h38q37 -5 37 -37v-18q-223 -261 -223 -389h-55 q0 19 -19 55z" />
<glyph unicode="&#xfe;" horiz-adv-x="770" d="M60 1055q19 408 74 408h19q74 0 74 -259v-19q39 0 204 19q167 0 259 -130v-19q0 -174 -334 -370q-104 -86 -111 -130l56 -333l-56 -37h-37q-55 0 -92 574v148q0 137 -56 148zM227 1037q18 -185 18 -278q314 191 334 278l-130 56z" />
<glyph unicode="&#xff;" horiz-adv-x="807" d="M60 907h56q53 -15 203 -278l112 -111q175 435 240 445h19q37 -6 37 -37v-19q-334 -765 -389 -1000q0 -11 -56 -185h-74v18q0 241 148 593q0 45 -277 482zM134 1278q74 37 130 37q17 0 111 -74h56q67 55 129 55q74 -78 74 -148q-71 -93 -148 -93q-74 38 -74 112h-37 q-96 -93 -167 -93h-18q0 54 -56 204z" />
<glyph unicode="&#x152;" horiz-adv-x="1529" d="M60 629v93q0 314 463 500l871 130q36 -19 55 -19v-55l-704 -167q19 -185 19 -278v-55q344 55 389 55q148 -30 148 -74q0 -32 -500 -93q0 -37 -37 -37q25 -277 56 -315q94 0 481 112h19q37 -6 37 -37q-103 -101 -500 -186q-74 0 -74 -129h-75q0 129 -111 129 q-356 0 -537 426zM171 685q0 -181 315 -333q72 -38 204 -38q-44 779 -93 779h-18q-356 -194 -408 -390v-18z" />
<glyph unicode="&#x153;" horiz-adv-x="1233" d="M60 722q0 321 426 389q93 -19 222 -148q187 55 260 55q167 -62 167 -203q0 -136 -297 -223q-80 0 -148 37l-56 -74v-37h371l74 56h37q37 -6 37 -37q-29 -185 -352 -185l-37 -19q-160 37 -241 111h-18q-131 -37 -149 -37h-37q-240 39 -240 278zM190 629q0 -25 92 -92h130 q56 0 93 278q37 0 37 37v18q0 27 -56 56h-37q-259 -64 -259 -223v-74zM727 778q6 -37 37 -37h37q37 0 185 37v74h-74l-185 -19v-55z" />
<glyph unicode="&#x178;" horiz-adv-x="974" d="M60 1500v37h130q305 -461 370 -500l241 519h93v-93q-125 -180 -445 -926q-130 -227 -222 -593h-19q-46 0 -55 74q66 285 259 704q56 130 56 185q-159 285 -408 593zM190 1648q0 27 55 56q60 -37 93 -37v-37q0 -37 -37 -37q-111 18 -111 55zM542 1611v37h18l93 -18v-37 q0 -37 -37 -37h-19q-26 0 -55 55z" />
<glyph unicode="&#x2c6;" horiz-adv-x="434" d="M14.5 1121.5q-0.5 5.5 3.5 13.5t12 17t19 15t31 21.5t43 35t45 42t37 42.5q8 11 16 24.5t15.5 24.5t13.5 18t11 5q4 -2 11 -3.5t13.5 -4t12.5 -8t9 -14.5q6 -19 13 -31.5t18 -35.5q6 -14 17.5 -31t24.5 -33t25.5 -29t20.5 -18q22 -14 21.5 -35.5t-13.5 -35.5t-32 -15 t-35 26q-14 25 -23.5 45.5t-12.5 30.5q-2 5 -14 15t-26 20q-17 11 -36 25l-10 3l-5 -17q-56 -32 -103 -57q-20 -11 -39.5 -21t-35.5 -18.5t-27 -13.5t-14 -6q-6 -2 -6.5 3.5z" />
<glyph unicode="&#x2000;" horiz-adv-x="1186" />
<glyph unicode="&#x2001;" horiz-adv-x="2373" />
<glyph unicode="&#x2002;" horiz-adv-x="1186" />
<glyph unicode="&#x2003;" horiz-adv-x="2373" />
<glyph unicode="&#x2004;" horiz-adv-x="791" />
<glyph unicode="&#x2005;" horiz-adv-x="593" />
<glyph unicode="&#x2006;" horiz-adv-x="395" />
<glyph unicode="&#x2007;" horiz-adv-x="395" />
<glyph unicode="&#x2008;" horiz-adv-x="296" />
<glyph unicode="&#x2009;" horiz-adv-x="474" />
<glyph unicode="&#x200a;" horiz-adv-x="131" />
<glyph unicode="&#x2010;" horiz-adv-x="696" d="M60 575v37q148 37 315 37h148l93 -18v-56q0 -37 -37 -37q-14 0 -111 18l-37 -18q-36 18 -56 18q-237 -37 -278 -37z" />
<glyph unicode="&#x2011;" horiz-adv-x="696" d="M60 575v37q148 37 315 37h148l93 -18v-56q0 -37 -37 -37q-14 0 -111 18l-37 -18q-36 18 -56 18q-237 -37 -278 -37z" />
<glyph unicode="&#x2012;" horiz-adv-x="696" d="M60 575v37q148 37 315 37h148l93 -18v-56q0 -37 -37 -37q-14 0 -111 18l-37 -18q-36 18 -56 18q-237 -37 -278 -37z" />
<glyph unicode="&#x2013;" horiz-adv-x="1024" d="M60 519v130h884v-130h-884z" />
<glyph unicode="&#x2014;" horiz-adv-x="2048" d="M60 519v130h1908v-130h-1908z" />
<glyph unicode="&#x2018;" horiz-adv-x="306" d="M60 997v93q37 389 111 389h18q37 0 37 -37v-18q-62 -318 -74 -352l19 -37v-56q-6 -37 -37 -37h-19q-26 0 -55 55z" />
<glyph unicode="&#x2019;" horiz-adv-x="306" d="M60 979v18q62 318 74 352l-19 37v56q6 37 37 37h19q26 0 55 -55v-93q-37 -389 -111 -389h-18q-37 0 -37 37z" />
<glyph unicode="&#x201c;" horiz-adv-x="538" d="M60 997v93q37 389 111 389h18q37 0 37 -37v-18q-62 -318 -74 -352l19 -37v-56q-6 -37 -37 -37h-19q-26 0 -55 55zM292 997v93q37 389 111 389h18q37 0 37 -37v-18q-62 -318 -74 -352l19 -37v-56q-6 -37 -37 -37h-19q-26 0 -55 55z" />
<glyph unicode="&#x201d;" horiz-adv-x="538" d="M60 979v18q62 318 74 352l-19 37v56q6 37 37 37h19q26 0 55 -55v-93q-37 -389 -111 -389h-18q-37 0 -37 37zM292 979v18q62 318 74 352l-19 37v56q6 37 37 37h19q26 0 55 -55v-93q-37 -389 -111 -389h-18q-37 0 -37 37z" />
<glyph unicode="&#x2022;" horiz-adv-x="565" d="M50 411q0 145 204 260q241 -31 241 -167q-14 -297 -222 -297q-155 0 -223 204z" />
<glyph unicode="&#x2026;" horiz-adv-x="1032" d="M748 -74q0 51 185 74l19 -37q0 -101 -93 -148q-111 18 -111 55v56zM404 -74q0 51 185 74l19 -37q0 -101 -93 -148q-111 18 -111 55v56zM60 -74q0 51 185 74l19 -37q0 -101 -93 -148q-111 18 -111 55v56z" />
<glyph unicode="&#x202f;" horiz-adv-x="474" />
<glyph unicode="&#x2039;" horiz-adv-x="807" d="M60 479q0 78 278 223q0 20 297 222h55q37 -6 37 -37v-74q-453 -250 -537 -352v-37q475 -262 519 -353v-18q0 -37 -56 -37q-593 309 -593 463z" />
<glyph unicode="&#x203a;" horiz-adv-x="770" d="M60 890v19q0 37 56 37l426 -315q148 -77 148 -186q-233 -185 -296 -185q0 -20 -260 -260h-37q0 20 -18 56q149 251 426 389q37 0 37 37q-309 189 -482 408z" />
<glyph unicode="&#x205f;" horiz-adv-x="593" />
<glyph unicode="&#x20ac;" horiz-adv-x="1493" d="M60 241v56q204 0 204 130v92h-37l-130 19v56q6 37 37 37l74 -19q157 0 315 185q381 223 445 223h112q129 -88 129 -111v-56q0 -37 -37 -37h-18q-19 0 -19 19l-37 -19h-55v37l18 37q-20 0 -56 19q-411 -139 -463 -260h426q37 -6 37 -37q0 -27 -55 -56q-575 0 -575 -111 q-18 -30 -18 -92q37 0 37 -19l222 19h223l92 -19v-19q0 -46 -463 -92v-19q156 -92 371 -92q296 0 574 92v-74q-212 -130 -611 -130q-316 0 -520 223h-129z" />
<glyph unicode="&#x2122;" horiz-adv-x="1159" d="M60 1113v37q0 83 482 111l37 56q56 -46 153 -316h70q0 23 74 260h55q99 0 149 -538v-18q0 -37 -37 -37q-76 0 -112 296l-92 -148h-37l-75 56h-37v-130q0 -37 -37 -37h-55q-75 351 -75 389q0 37 -37 37h-74l-37 -18l19 -223v-148q0 -37 -37 -37h-19q-46 0 -56 74 q0 75 -18 334q-42 0 -74 18q-19 -55 -111 -55z" />
<glyph unicode="&#xe000;" horiz-adv-x="870" d="M0 870h870v-870h-870v870z" />
<glyph unicode="&#xfb01;" horiz-adv-x="1055" d="M771 0q56 348 74 612h37q41 0 56 -185h-19q0 -19 19 -19q-65 -482 -111 -482q-47 0 -56 74zM790 1001q16 0 148 19l37 -56q-19 -111 -56 -111h-18q-111 0 -111 148zM60 315v75q185 33 185 148q0 349 390 908q29 0 74 37h18q130 0 130 -166v-38h-37q-37 0 -37 56h-56 q-370 -397 -370 -816h18q172 56 260 56l18 -37v-37q-296 -93 -296 -167q0 -28 92 -389q-18 -36 -18 -56h-56q-55 0 -130 445q-36 0 -129 -37q-36 18 -56 18z" />
<glyph unicode="&#xfb02;" horiz-adv-x="1055" d="M771 0v371l93 1038h92q0 -55 19 -55q-93 -619 -130 -1150l19 -37q-19 -32 -19 -74q37 -60 37 -93l-55 -37h-19q-37 0 -37 37zM60 315v75q185 33 185 148q0 349 390 908q29 0 74 37h18q130 0 130 -166v-38h-37q-37 0 -37 56h-56q-370 -397 -370 -816h18q172 56 260 56 l18 -37v-37q-296 -93 -296 -167q0 -28 92 -389q-18 -36 -18 -56h-56q-55 0 -130 445q-36 0 -129 -37q-36 18 -56 18z" />
<glyph unicode="&#xfb03;" horiz-adv-x="1766" d="M1482 0q56 348 74 612h37q41 0 56 -185h-19q0 -19 19 -19q-65 -482 -111 -482q-47 0 -56 74zM1501 1001q16 0 148 19l37 -56q-19 -111 -56 -111h-18q-111 0 -111 148zM771 315v75q185 33 185 148q0 349 390 908q29 0 74 37h18q130 0 130 -166v-38h-37q-37 0 -37 56h-56 q-370 -397 -370 -816h18q172 56 260 56l18 -37v-37q-296 -93 -296 -167q0 -28 92 -389q-18 -36 -18 -56h-56q-55 0 -130 445q-36 0 -129 -37q-36 18 -56 18zM60 315v75q185 33 185 148q0 349 390 908q29 0 74 37h18q130 0 130 -166v-38h-37q-37 0 -37 56h-56 q-370 -397 -370 -816h18q172 56 260 56l18 -37v-37q-296 -93 -296 -167q0 -28 92 -389q-18 -36 -18 -56h-56q-55 0 -130 445q-36 0 -129 -37q-36 18 -56 18z" />
<glyph unicode="&#xfb04;" horiz-adv-x="1766" d="M1482 0v371l93 1038h92q0 -55 19 -55q-93 -619 -130 -1150l19 -37q-19 -32 -19 -74q37 -60 37 -93l-55 -37h-19q-37 0 -37 37zM771 315v75q185 33 185 148q0 349 390 908q29 0 74 37h18q130 0 130 -166v-38h-37q-37 0 -37 56h-56q-370 -397 -370 -816h18q172 56 260 56 l18 -37v-37q-296 -93 -296 -167q0 -28 92 -389q-18 -36 -18 -56h-56q-55 0 -130 445q-36 0 -129 -37q-36 18 -56 18zM60 315v75q185 33 185 148q0 349 390 908q29 0 74 37h18q130 0 130 -166v-38h-37q-37 0 -37 56h-56q-370 -397 -370 -816h18q172 56 260 56l18 -37v-37 q-296 -93 -296 -167q0 -28 92 -389q-18 -36 -18 -56h-56q-55 0 -130 445q-36 0 -129 -37q-36 18 -56 18z" />
</font>
</defs>
</svg>
